<svg width="660" height="660" xmlns="http://www.w3.org/2000/svg">
 <g id="Layer_1">
  <title>Layer 1</title>
  <g id="svg_1">
   <path id="svg_2" d="m569.1895,302.957l-48.428,0c-9.024,0 -16.34,-7.316 -16.34,-16.34l0,-51.471c0,-9.024 7.316,-16.34 16.34,-16.34l99.898,0c9.024,0 16.34,7.316 16.34,16.34c0.001,37.39 -30.419,67.811 -67.81,67.811z" fill="#FFC843"/>
   <g id="svg_3">
    <path id="svg_4" d="m520.7625,338.74l-131.729,0c-9.024,0 -16.34,-7.316 -16.34,-16.34l0,-108.647c0,-45.327 36.877,-82.204 82.204,-82.204c45.328,0 82.205,36.877 82.205,82.204l0,108.647c0,9.025 -7.316,16.34 -16.34,16.34z" fill="#6CCFE2"/>
    <path id="svg_5" d="m331.0515,528.451c-113.616,0 -206.051,-92.434 -206.051,-206.051c0,-9.024 7.316,-16.34 16.34,-16.34l379.421,0c9.024,0 16.34,7.316 16.34,16.34c0.001,113.617 -92.433,206.051 -206.05,206.051z" fill="#6CCFE2"/>
   </g>
   <path id="svg_6" d="m331.0515,460.574c-46.016,0 -88.888,-22.867 -114.681,-61.169c-7.297,-10.832 0.483,-25.468 13.553,-25.468l202.256,0c13.056,0 20.857,14.622 13.553,25.468c-25.793,38.302 -68.665,61.169 -114.681,61.169z" fill="#FFC843"/>
   <path id="svg_7" d="m520.7625,306.059l-189.711,0l0,222.391c113.617,0 206.051,-92.434 206.051,-206.051c0,-9.024 -7.316,-16.34 -16.34,-16.34z" fill="#58A4B3"/>
   <path id="svg_8" d="m432.1785,373.937l-101.127,0l0,86.637c46.016,0 88.889,-22.867 114.68,-61.169c7.305,-10.845 -0.496,-25.468 -13.553,-25.468z" fill="#F3B73F"/>
   <circle id="svg_9" cx="470.1535" cy="208.83" r="21.616" fill="#4A5052"/>
   <g id="svg_10"/>
   <g id="svg_11"/>
   <g id="svg_12"/>
   <g id="svg_13"/>
   <g id="svg_14"/>
   <g id="svg_15"/>
   <g id="svg_16"/>
   <g id="svg_17"/>
   <g id="svg_18"/>
   <g id="svg_19"/>
   <g id="svg_20"/>
   <g id="svg_21"/>
   <g id="svg_22"/>
   <g id="svg_23"/>
   <g id="svg_24"/>
  </g>
 </g>

</svg>